<svg width="34" height="34" viewBox="0 0 34 34" fill="none" xmlns="http://www.w3.org/2000/svg">
<g clip-path="url(#clip0_1_36909)">
<path d="M28.3333 0H5.66667C2.53705 0 0 2.53705 0 5.66667V28.3333C0 31.4629 2.53705 34 5.66667 34H28.3333C31.4629 34 34 31.4629 34 28.3333V5.66667C34 2.53705 31.4629 0 28.3333 0Z" fill="#2F80ED"/>
<path d="M16.8583 20.3292C14.025 18.3458 11.1917 18.3458 8.35834 20.3292V7.8625C11.1917 5.87917 14.025 5.87917 16.8583 7.8625C19.6917 5.87917 22.525 5.87917 25.3583 7.8625V20.3292C22.525 18.3458 19.6917 18.3458 16.8583 20.3292Z" stroke="white" stroke-width="2.125" stroke-linecap="round" stroke-linejoin="round"/>
<path d="M13.4583 11.8292H10.625" stroke="white" stroke-width="2.125" stroke-linecap="round" stroke-linejoin="round"/>
<path d="M14.5917 14.6625H10.625" stroke="white" stroke-width="2.125" stroke-linecap="round" stroke-linejoin="round"/>
<path d="M5.07453 28.9583V23.5042H8.30808V24.5794H6.14978V25.4988H7.93408V26.5741H6.14978V28.9583H5.07453ZM10.124 23.5042H11.3473L13.3264 28.9583H12.1849L11.8577 28.0545H9.61367L9.28642 28.9583H8.14494L10.124 23.5042ZM10.0071 26.9793H11.4642L10.7318 24.9807L10.0071 26.9793ZM13.9695 28.9583V23.5042H15.0448V27.8831H17.242V28.9583H13.9695ZM20.1996 29.0596C19.8308 29.0596 19.4841 28.9869 19.1594 28.8415C18.8348 28.6934 18.5491 28.4895 18.3024 28.2298C18.0582 27.9701 17.866 27.6701 17.7258 27.3299C17.5881 26.9871 17.5193 26.6208 17.5193 26.2313C17.5193 25.8391 17.5881 25.4729 17.7258 25.1326C17.866 24.7898 18.0582 24.4898 18.3024 24.2327C18.5491 23.973 18.8348 23.7704 19.1594 23.6249C19.4841 23.4769 19.8308 23.4029 20.1996 23.4029C20.6412 23.4029 21.0476 23.5055 21.419 23.7107C21.7904 23.9132 22.0982 24.1846 22.3423 24.5249L21.384 25.043C21.2385 24.8716 21.0632 24.7353 20.858 24.634C20.6528 24.5301 20.4334 24.4781 20.1996 24.4781C19.9789 24.4781 19.7711 24.5236 19.5763 24.6145C19.3815 24.7054 19.2101 24.8314 19.062 24.9924C18.9166 25.1534 18.8023 25.3391 18.7192 25.5495C18.6361 25.7599 18.5945 25.9871 18.5945 26.2313C18.5945 26.4728 18.6361 26.7001 18.7192 26.913C18.8023 27.1234 18.9166 27.3091 19.062 27.4701C19.2101 27.6286 19.3815 27.7545 19.5763 27.848C19.7711 27.9389 19.9789 27.9844 20.1996 27.9844C20.436 27.9844 20.6554 27.9324 20.858 27.8286C21.0632 27.7247 21.2385 27.587 21.384 27.4156L22.3423 27.9376C22.0982 28.2753 21.7904 28.5467 21.419 28.7519C21.0476 28.957 20.6412 29.0596 20.1996 29.0596ZM23.1993 25.0625H23.7447V28.9583H23.1993V25.0625ZM23.4759 24.3807C23.3876 24.3807 23.3123 24.3522 23.2499 24.295C23.1902 24.2353 23.1603 24.1613 23.1603 24.073C23.1603 23.9847 23.1902 23.9119 23.2499 23.8548C23.3123 23.7951 23.3876 23.7652 23.4759 23.7652C23.5616 23.7652 23.6343 23.7951 23.6941 23.8548C23.7564 23.9119 23.7876 23.9847 23.7876 24.073C23.7876 24.1613 23.7577 24.2353 23.698 24.295C23.6382 24.3522 23.5642 24.3807 23.4759 24.3807ZM25.4895 24.0457V25.0625H26.6582V25.6079H25.4895V28.9583H24.9441V25.6079H24.4103V25.0625H24.9441V24.0457C24.9441 23.8561 24.9895 23.6847 25.0804 23.5314C25.1739 23.3756 25.2986 23.2522 25.4544 23.1613C25.6103 23.0678 25.783 23.0211 25.9726 23.0211C26.1102 23.0211 26.2427 23.0484 26.37 23.1029C26.4998 23.1574 26.6154 23.238 26.7167 23.3444L26.3271 23.7301C26.2855 23.6782 26.2323 23.6379 26.1674 23.6094C26.105 23.5808 26.0401 23.5665 25.9726 23.5665C25.8401 23.5665 25.7258 23.6133 25.6297 23.7068C25.5362 23.8003 25.4895 23.9132 25.4895 24.0457ZM29.954 25.0625H30.5306L28.3996 30.9063H27.8191L28.5281 28.9583L27.1295 25.0625H27.7256L28.8008 28.2064L29.954 25.0625Z" fill="white"/>
</g>
<defs>
<clipPath id="clip0_1_36909">
<rect width="34" height="34" fill="white"/>
</clipPath>
</defs>
</svg>
